<svg version="1.1" preserveAspectRatio="none" xmlns="http://www.w3.org/2000/svg" width="500" height="500" viewBox="0 0 500 500"><rect width="100%" height="100%" fill="#FFFFFF" fill-opacity="1"/><svg viewBox="123.6678 141.6423 346.4157 140" width="333" height="134.57819608060487" x="83.5px" y="182.7109px" xmlns="http://www.w3.org/2000/svg" xmlns:xlink="http://www.w3.org/1999/xlink" preserveAspectRatio="none"><defs></defs><style>.companyName {fill:#0C0C0C;fill-opacity:1;}.icon3 {fill:#0C0C0C;fill-opacity:1;}.icon3-str {stroke:#0C0C0C;stroke-opacity:1;}</style><g opacity="1" transform="rotate(0 154.7155 151.6423)">
<svg width="315.368" height="120" x="154.7155" y="151.6423" version="1.1" preserveAspectRatio="none" viewBox="2.8 -22 154.32 58.72">
  <g transform="matrix(1 0 0 1 0 0)" class="companyName"><path id="id-D6z1nYkh15" d="M21.08-0.92L21.08-0.92Q20.96-0.68 20.96-0.16L20.96-0.16Q20.96 0.16 21 0.64Q21.04 1.12 21.04 1.44L21.04 1.44Q21.04 2.20 20.56 2.52Q20.08 2.84 19.40 2.84L19.40 2.84Q18.40 2.84 17.56 2.12L17.56 2.12Q17.56 2 17.58 1.84Q17.60 1.68 17.60 1.48L17.60 1.48Q17.60 0.80 17.52 0.12Q17.44-0.56 17.44-0.52L17.44-0.52L17.52-2.04Q15.28-0.32 13.64-0.20L13.64-0.20Q12.80-0.12 12.18-0.08Q11.56-0.04 11.12 0L11.12 0Q10.64 0.04 10.28 0.08L10.28 0.08L10.32 0.08Q9 0.08 7.66-0.50Q6.32-1.08 5.24-2.10Q4.16-3.12 3.48-4.50Q2.80-5.88 2.80-7.44L2.80-7.44Q2.80-8.20 2.98-9.42Q3.16-10.64 3.46-11.92Q3.76-13.20 4.10-14.36Q4.44-15.52 4.80-16.16L4.80-16.16Q5.40-17.28 6.92-18.68L6.92-18.68Q7.92-19.24 9.18-19.90Q10.44-20.56 12.04-21.28L12.04-21.28L16.28-22Q18.80-21.72 20.04-21.08Q21.28-20.44 21.28-19L21.28-19Q21.28-17.52 19.72-17.52L19.72-17.52Q19.12-17.52 18.40-17.78Q17.68-18.04 16.84-18.08L16.84-18.08Q16.32-18.12 15.84-18.12Q15.36-18.12 14.84-18.12L14.84-18.12Q12.40-17.64 11.08-16.80L11.08-16.80Q10.20-16.64 9.36-15.86Q8.52-15.08 7.88-13.88Q7.24-12.68 6.84-11.16Q6.44-9.64 6.44-8.04L6.44-8.04Q6.44-6.36 7.08-5.28Q7.72-4.20 9.68-3.60L9.68-3.60Q9.96-3.48 10.52-3.48L10.52-3.48Q11.96-3.48 12.74-3.64Q13.52-3.80 14.14-4.16Q14.76-4.52 15.42-5.08Q16.08-5.64 17.28-6.44L17.28-6.44L17.28-7.04Q17.16-7.52 16.32-7.78Q15.48-8.04 14.52-8.12L14.52-8.12Q13.40-8.24 11.96-8.24L11.96-8.24Q11-9.12 11-10.08L11-10.08Q11-11.36 12.32-11.72L12.32-11.72L12.28-11.72Q12.28-11.80 12.98-11.64Q13.68-11.48 14.96-11.48L14.96-11.48Q15.32-11.48 15.56-11.56L15.56-11.56Q16.08-11.52 16.78-11.36Q17.48-11.20 18.20-10.96Q18.92-10.72 19.50-10.46Q20.08-10.20 20.36-10L20.36-10Q21.08-9.44 21.08-7.28L21.08-7.28Q21.08-6.32 20.84-5.56L20.84-5.56Q20.92-5.24 20.96-4.50Q21-3.76 21.04-2.96Q21.08-2.16 21.08-1.54Q21.08-0.92 21.08-0.92Z M41.88-1.60L41.88-1.60Q40.60-0.32 39 0.58Q37.40 1.48 35.76 1.48L35.76 1.48Q34.28 1.48 31.96 1L31.96 1Q31.16 0.48 30.36-0.26Q29.56-1 28.92-1.90Q28.28-2.80 27.88-3.86Q27.48-4.92 27.48-6.04L27.48-6.04Q27.48-6.36 27.52-6.90Q27.56-7.44 27.62-7.98Q27.68-8.52 27.72-8.92Q27.76-9.32 27.76-9.32L27.76-9.32Q28.56-10.60 29.46-11.86Q30.36-13.12 32.00-14.08L32.00-14.08Q34.60-14.64 35.76-14.64L35.76-14.64Q36.36-14.64 36.80-14.58Q37.24-14.52 37.66-14.34Q38.08-14.16 38.50-13.80Q38.92-13.44 39.48-12.88L39.48-12.88Q40.12-12.20 40.50-11.96Q40.88-11.72 40.88-11.52L40.88-11.52Q40.88-7.84 38.60-6.52L38.60-6.52Q37.60-6.16 36-5.74Q34.40-5.32 31.64-4.96L31.64-4.96Q32.20-3.44 33.12-2.68Q34.04-1.92 35.20-1.92L35.20-1.92Q36.92-1.92 39.52-3.96L39.52-3.96Q39.92-4.32 40.52-4.32L40.52-4.32Q41.16-4.32 41.66-3.84Q42.16-3.36 42.16-2.64L42.16-2.64Q42.16-2.12 41.88-1.60ZM37.36-10.16L37.36-10.16Q36.60-11.40 35.56-11.40L35.56-11.40Q35.12-11.40 34.60-11.28Q34.08-11.16 33.54-10.94Q33-10.72 32.54-10.40Q32.08-10.08 31.80-9.64L31.80-9.64L31.40-8.44Q32.76-8.56 33.80-8.64Q34.84-8.72 35.60-8.88Q36.36-9.04 36.80-9.32Q37.24-9.60 37.36-10.16Z M57.36-1L57.36-1Q56.84-0.64 55.68-0.30Q54.52 0.04 53.28 0.28L53.28 0.28L51.64-0.04Q51.28-0.16 50.46-0.60Q49.64-1.04 48.80-1.94Q47.96-2.84 47.32-4.26Q46.68-5.68 46.68-7.72L46.68-7.72Q46.68-8.44 47.02-9.42Q47.36-10.40 48.04-11.26Q48.72-12.12 49.74-12.72Q50.76-13.32 52.12-13.32L52.12-13.32Q54.84-13.32 57.04-11.56L57.04-11.56Q58.96-8.92 58.96-5.72L58.96-5.72Q58.96-3.36 57.36-1ZM55.40-6.68L55.40-6.68Q55.20-8.24 54.42-9.14Q53.64-10.04 52.44-10.04L52.44-10.04Q51.64-10.04 50.94-9.26Q50.24-8.48 50.24-7L50.24-7Q50.24-6.40 50.40-5.74Q50.56-5.08 50.92-4.54Q51.28-4 51.84-3.66Q52.40-3.32 53.20-3.32L53.20-3.32Q54.48-3.32 54.96-4.10Q55.44-4.88 55.44-6.04L55.44-6.04Q55.44-6.20 55.42-6.34Q55.40-6.48 55.40-6.68Z M79.16-16.64L79.16-16.64Q78.60-16.40 77.92-16.40L77.92-16.40Q77.72-16.40 77.34-16.44Q76.96-16.48 76.52-16.54Q76.08-16.60 75.66-16.66Q75.24-16.72 75.04-16.72L75.04-16.72Q73.76-16.72 72.56-16.36L72.56-16.36Q72.80-14.84 72.96-13.40Q73.12-11.96 73.24-10.70Q73.36-9.44 73.40-8.42Q73.44-7.40 73.44-6.68L73.44-6.68Q73.44-4.88 73.42-3.58Q73.40-2.28 73.20-1.42Q73-0.56 72.56-0.16Q72.12 0.24 71.28 0.24L71.28 0.24Q70.48 0.24 70.10-0.18Q69.72-0.60 69.58-1.18Q69.44-1.76 69.46-2.40Q69.48-3.04 69.48-3.48L69.48-3.48Q69.48-4.24 69.60-4.86Q69.72-5.48 69.72-6.04L69.72-6.04Q69.72-6.32 69.56-8.06Q69.40-9.80 69.40-12.44L69.40-12.44Q69.40-13.32 69.22-14.18Q69.04-15.04 68.84-15.84L68.84-15.84L66.48-15.68Q65.04-15.56 64.48-15.24L64.48-15.24Q63.64-15.24 63.04-15.72Q62.44-16.20 62.44-16.96L62.44-16.96Q62.44-17.72 63.12-18.64L63.12-18.64Q63.32-18.68 64.92-18.94Q66.52-19.20 69.52-19.76L69.52-19.76L71.52-20Q72.48-20.12 73.36-20.12L73.36-20.12L73.96-20.12L78.68-19.80Q79.52-19.32 79.52-18L79.52-18Q79.52-17.28 79.16-16.64Z M97.84-4.72L97.84-4.72Q98.56-4.24 98.56-3.56L98.56-3.56Q98.56-3.20 98.36-2.82Q98.16-2.44 97.84-2.14Q97.52-1.84 97.16-1.64Q96.80-1.44 96.44-1.44L96.44-1.44Q96.12-1.56 95.68-1.86Q95.24-2.16 94.80-2.54Q94.36-2.92 93.98-3.40Q93.60-3.88 93.40-4.36L93.40-4.36L93.12-3.68Q92.36-2.24 90.72-0.96L90.72-0.96Q88.72-0.60 88.40-0.60L88.40-0.60Q87.64-0.60 86.56-0.84L86.56-0.84L84.36-2.40Q82.92-3.76 82.92-6.12L82.92-6.12Q82.92-6.96 83.18-7.98Q83.44-9 83.94-10.04Q84.44-11.08 85.16-12.08Q85.88-13.08 86.84-13.88L86.84-13.88Q88-14.32 89.08-14.62Q90.16-14.92 90.72-15L90.72-15Q91.48-15.84 92.52-15.84L92.52-15.84Q93.12-15.84 93.58-15.26Q94.04-14.68 94.38-13.80Q94.72-12.92 94.92-11.86Q95.12-10.80 95.20-9.84L95.20-9.84L95.72-7.72Q95.96-6.72 96.50-6Q97.04-5.28 97.84-4.72ZM91.76-9.16L91.76-9.16Q91.68-9.20 91.16-11.68L91.16-11.68Q90.96-11.68 90.56-11.68Q90.16-11.68 89.62-11.46Q89.08-11.24 88.46-10.70Q87.84-10.16 87.28-9.08L87.28-9.08Q86.44-7.52 86.44-5.96L86.44-5.96Q87.12-4.64 88.56-3.88L88.56-3.88Q89-4 89.30-4.16Q89.60-4.32 89.84-4.60Q90.08-4.88 90.30-5.30Q90.52-5.72 90.80-6.36L90.80-6.36Q91.32-7.28 91.54-7.98Q91.76-8.68 91.76-9.16Z M116.36-13.28L116.36-13.28Q116.48-12.72 116.48-11.88L116.48-11.88Q116.48-11.20 116.40-10.30Q116.32-9.40 116.16-8.32L116.16-8.32Q116.20-8.20 116.20-8.04Q116.20-7.88 116.20-7.68L116.20-7.68Q116.20-7.24 116.14-6.66Q116.08-6.08 116-5.32L116-5.32Q116.04-5.12 116.04-4.92Q116.04-4.72 116.04-4.44L116.04-4.44Q116.04-3.52 115.92-2.16Q115.80-0.80 115.60 1.08L115.60 1.08Q115.04 5.72 111.80 7.84L111.80 7.84Q110.64 8.28 109.50 8.50Q108.36 8.72 107.20 8.72L107.20 8.72Q105.68 8.72 102.44 7.40L102.44 7.40L100.44 5.72Q99.84 5.24 99.62 4.96Q99.40 4.68 99.40 4.28L99.40 4.28Q99.40 3.44 99.88 2.82Q100.36 2.20 101.16 2.20L101.16 2.20Q101.68 2.20 102.32 2.52L102.32 2.52L104.32 4.20Q105.76 5.16 107.56 5.20L107.56 5.20Q107.76 5.24 108.08 5.14Q108.40 5.04 108.84 4.92L108.84 4.92L110.16 4.56Q111.60 3.64 112.04 1.16L112.04 1.16Q112.08 0.80 112.12 0.28L112.12 0.28Q112.20-0.68 112.36-2.44L112.36-2.44Q112.20-2.36 111.64-2.14Q111.08-1.92 110.26-1.66Q109.44-1.40 108.38-1.20Q107.32-1 106.16-1L106.16-1Q105.96-1 105.74-1.10Q105.52-1.20 105.16-1.44Q104.80-1.68 104.30-2.08Q103.80-2.48 103.08-3.12L103.08-3.12L102.12-4.92Q101.76-5.60 101.62-6.30Q101.48-7 101.48-7.68L101.48-7.68Q101.48-8.80 102.34-9.94Q103.20-11.08 104.50-12Q105.80-12.92 107.32-13.50Q108.84-14.08 110.12-14.08L110.12-14.08Q110.72-14.08 111.30-14Q111.88-13.92 113.08-13.56L113.08-13.56L113.28-14.04Q113.80-14.40 114.56-14.40L114.56-14.40Q116.08-14.40 116.36-13.28ZM112.56-9.44L112.56-9.92Q112.16-10.20 111.66-10.32Q111.16-10.44 110.68-10.56L110.68-10.56Q110.16-10.48 109.48-10.34Q108.80-10.20 107.96-10L107.96-10Q105.32-8.48 105.32-7.24L105.32-7.24Q105.32-6.56 105.80-5.90Q106.28-5.24 107.16-4.56L107.16-4.56Q107.76-4.60 108.44-4.70Q109.12-4.80 109.80-5.04Q110.48-5.28 111.12-5.74Q111.76-6.20 112.36-7L112.36-7Q112.44-7.68 112.50-8.28Q112.56-8.88 112.56-9.44L112.56-9.44Z M20.52 14L20.64 19.04L20.64 20.08Q20.64 21.64 20.52 23.12L20.52 23.12L20.52 23.68Q20.52 24.12 20.44 24.66Q20.36 25.20 20.18 25.70Q20 26.20 19.66 26.54Q19.32 26.88 18.84 26.88L18.84 26.88Q17.72 26.88 16.96 26.12L16.96 26.12Q16.96 25.44 14.08 21.96L14.08 21.96Q13.88 21.48 13.38 20.70Q12.88 19.92 12.12 18.84L12.12 18.84Q11.92 18.68 11.50 18.08Q11.08 17.48 10.66 16.82Q10.24 16.16 9.94 15.64Q9.64 15.12 9.68 15.16L9.68 15.16Q9.36 14.84 8.92 14.26Q8.48 13.68 7.84 12.80L7.84 12.80Q7.84 14.92 7.64 15.24L7.64 15.24Q7.60 15.68 7.54 16.38Q7.48 17.08 7.42 17.82Q7.36 18.56 7.32 19.26Q7.28 19.96 7.24 20.36L7.24 20.36L7.24 20.52Q7.24 20.84 7.10 21.50Q6.96 22.16 6.78 22.84Q6.60 23.52 6.44 24.08Q6.28 24.64 6.28 24.72L6.28 24.72Q5.68 26.04 4.40 26.04L4.40 26.04Q3.12 26.04 2.80 24.40L2.80 24.40Q3.08 22.80 3.64 19.12L3.64 19.12Q3.68 18.40 3.78 17.24Q3.88 16.08 4.08 14.40L4.08 14.40Q4.16 14 4.24 13.08Q4.32 12.16 4.42 11.14Q4.52 10.12 4.64 9.20Q4.76 8.28 4.88 7.88L4.88 7.88Q5.76 6.76 7.32 6.76L7.32 6.76Q7.52 6.84 7.86 7.20Q8.20 7.56 8.60 8.06Q9 8.56 9.44 9.14Q9.88 9.72 10.24 10.32L10.24 10.32Q10.68 10.84 11.42 11.78Q12.16 12.72 13.10 13.94Q14.04 15.16 15.06 16.60Q16.08 18.04 17.04 19.60L17.04 19.60L17.04 18.52Q17.04 17.04 16.92 16.36L16.92 16.36Q17 16.12 17 15.84L17 15.84Q17 15.76 16.94 15.34Q16.88 14.92 16.82 14.38Q16.76 13.84 16.70 13.32Q16.64 12.80 16.64 12.52L16.64 12.52Q16.64 12.44 16.66 12.38Q16.68 12.32 16.68 12.24L16.68 12.24Q16.56 10.48 16.44 9.30Q16.32 8.12 16.16 7.48L16.16 7.48Q16.60 5.48 17.92 5.48L17.92 5.48Q19.24 5.48 19.84 6.80L19.84 6.80Q19.92 8.20 20.08 10Q20.24 11.80 20.52 14L20.52 14Z M41.36 23.28L41.36 23.28Q42.08 23.76 42.08 24.44L42.08 24.44Q42.08 24.80 41.88 25.18Q41.68 25.56 41.36 25.86Q41.04 26.16 40.68 26.36Q40.32 26.56 39.96 26.56L39.96 26.56Q39.64 26.44 39.20 26.14Q38.76 25.84 38.32 25.46Q37.88 25.08 37.50 24.60Q37.12 24.12 36.92 23.64L36.92 23.64L36.64 24.32Q35.88 25.76 34.24 27.04L34.24 27.04Q32.24 27.40 31.92 27.40L31.92 27.40Q31.16 27.40 30.08 27.16L30.08 27.16L27.88 25.60Q26.44 24.24 26.44 21.88L26.44 21.88Q26.44 21.04 26.70 20.02Q26.96 19 27.46 17.96Q27.96 16.92 28.68 15.92Q29.40 14.92 30.36 14.12L30.36 14.12Q31.52 13.68 32.60 13.38Q33.68 13.08 34.24 13L34.24 13Q35 12.16 36.04 12.16L36.04 12.16Q36.64 12.16 37.10 12.74Q37.56 13.32 37.90 14.20Q38.24 15.08 38.44 16.14Q38.64 17.20 38.72 18.16L38.72 18.16L39.24 20.28Q39.48 21.28 40.02 22Q40.56 22.72 41.36 23.28ZM35.28 18.84L35.28 18.84Q35.20 18.80 34.68 16.32L34.68 16.32Q34.48 16.32 34.08 16.32Q33.68 16.32 33.14 16.54Q32.60 16.76 31.98 17.30Q31.36 17.84 30.80 18.92L30.80 18.92Q29.96 20.48 29.96 22.04L29.96 22.04Q30.64 23.36 32.08 24.12L32.08 24.12Q32.52 24 32.82 23.84Q33.12 23.68 33.36 23.40Q33.60 23.12 33.82 22.70Q34.04 22.28 34.32 21.64L34.32 21.64Q34.84 20.72 35.06 20.02Q35.28 19.32 35.28 18.84Z M59.40 14.40L59.40 14.52Q59.28 15.40 57.68 18.32L57.68 18.32L56.48 21Q56.12 21.92 55.84 22.56Q55.56 23.20 55.34 23.66Q55.12 24.12 54.90 24.46Q54.68 24.80 54.44 25.12L54.44 25.12Q54.24 25.60 53.88 26.10Q53.52 26.60 53.04 27.04Q52.56 27.48 52 27.76Q51.44 28.04 50.84 28.04L50.84 28.04Q49.16 28.04 48.44 25.92L48.44 25.92Q48 25.44 47.60 24.68Q47.20 23.92 46.90 23.20Q46.60 22.48 46.40 21.94Q46.20 21.40 46.16 21.32L46.16 21.32Q45.68 20.32 45.68 18.96L45.68 18.96L45.68 18.64Q44.92 16.72 44.92 15.12L44.92 15.12Q44.92 14.36 45.54 14Q46.16 13.64 46.96 13.64L46.96 13.64Q47.44 13.64 47.74 13.86Q48.04 14.08 48.22 14.50Q48.40 14.92 48.52 15.52Q48.64 16.12 48.80 16.88L48.80 16.88Q49.08 18.20 49.30 19.08Q49.52 19.96 49.78 20.64Q50.04 21.32 50.40 21.98Q50.76 22.64 51.32 23.52L51.32 23.52Q52.32 22.40 52.68 20.88L52.68 20.88Q52.96 20.36 53.14 19.86Q53.32 19.36 53.64 18.56Q53.96 17.76 54.56 16.50Q55.16 15.24 56.32 13.24L56.32 13.24Q56.76 12.68 57.40 12.68L57.40 12.68Q58.12 12.68 58.76 13.24Q59.40 13.80 59.40 14.40L59.40 14.40Z M70.16 9.16L70.16 9.16Q70.24 9.48 70.24 9.76L70.24 9.76Q70.24 11.04 69.48 11.92L69.48 11.92Q68.28 12.40 67.08 12.40L67.08 12.40Q66.32 11.92 65.82 11.30Q65.32 10.68 65.32 10.08L65.32 10.08Q65.32 9.56 66.52 7.52L66.52 7.52Q67.04 7.60 67.62 7.64Q68.20 7.68 68.70 7.84Q69.20 8 69.58 8.30Q69.96 8.60 70.16 9.16ZM68.88 15.84L68.88 15.84L68.88 16.36Q68.88 16.56 68.88 16.80Q68.88 17.04 68.80 17.24L68.80 17.24L68.48 19.04L68.48 19.40Q68.48 19.64 68.44 20.04Q68.40 20.44 68.34 20.84Q68.28 21.24 68.24 21.60Q68.20 21.96 68.20 22.20L68.20 22.20Q68.20 22.40 68.22 22.52Q68.24 22.64 68.24 22.84L68.24 22.84Q68.24 23.20 68.16 23.62Q68.08 24.04 68.08 24.56L68.08 24.56Q68.08 25.04 68.20 25.56L68.20 25.56Q67.76 27.36 66.36 27.36L66.36 27.36Q64.40 27.36 64.40 23.68L64.40 23.68Q64.40 22.44 64.52 21.22Q64.64 20 64.80 18.96Q64.96 17.92 65.14 17.14Q65.32 16.36 65.44 15.92L65.44 15.92Q66.04 15.04 67.12 15.04L67.12 15.04Q68.16 15.04 68.88 15.84Z M90.32 14.72L90.32 14.72Q90.44 15.28 90.44 16.12L90.44 16.12Q90.44 16.80 90.36 17.70Q90.28 18.60 90.12 19.68L90.12 19.68Q90.16 19.80 90.16 19.96Q90.16 20.12 90.16 20.32L90.16 20.32Q90.16 20.76 90.10 21.34Q90.04 21.92 89.96 22.68L89.96 22.68Q90 22.88 90 23.08Q90 23.28 90 23.56L90 23.56Q90 24.48 89.88 25.84Q89.76 27.20 89.56 29.08L89.56 29.08Q89 33.72 85.76 35.84L85.76 35.84Q84.60 36.28 83.46 36.50Q82.32 36.72 81.16 36.72L81.16 36.72Q79.64 36.72 76.40 35.40L76.40 35.40L74.40 33.72Q73.80 33.24 73.58 32.96Q73.36 32.68 73.36 32.28L73.36 32.28Q73.36 31.44 73.84 30.82Q74.32 30.20 75.12 30.20L75.12 30.20Q75.64 30.20 76.28 30.52L76.28 30.52L78.28 32.20Q79.72 33.16 81.52 33.20L81.52 33.20Q81.72 33.24 82.04 33.14Q82.36 33.04 82.80 32.92L82.80 32.92L84.12 32.56Q85.56 31.64 86 29.16L86 29.16Q86.04 28.80 86.08 28.28L86.08 28.28Q86.16 27.32 86.32 25.56L86.32 25.56Q86.16 25.64 85.60 25.86Q85.04 26.08 84.22 26.34Q83.40 26.60 82.34 26.80Q81.28 27 80.12 27L80.12 27Q79.92 27 79.70 26.90Q79.48 26.80 79.12 26.56Q78.76 26.32 78.26 25.92Q77.76 25.52 77.04 24.88L77.04 24.88L76.08 23.08Q75.72 22.40 75.58 21.70Q75.44 21 75.44 20.32L75.44 20.32Q75.44 19.20 76.30 18.06Q77.16 16.92 78.46 16Q79.76 15.08 81.28 14.50Q82.80 13.92 84.08 13.92L84.08 13.92Q84.68 13.92 85.26 14Q85.84 14.08 87.04 14.44L87.04 14.44L87.24 13.96Q87.76 13.60 88.52 13.60L88.52 13.60Q90.04 13.60 90.32 14.72ZM86.52 18.56L86.52 18.08Q86.12 17.80 85.62 17.68Q85.12 17.56 84.64 17.44L84.64 17.44Q84.12 17.52 83.44 17.66Q82.76 17.80 81.92 18L81.92 18Q79.28 19.52 79.28 20.76L79.28 20.76Q79.28 21.44 79.76 22.10Q80.24 22.76 81.12 23.44L81.12 23.44Q81.72 23.40 82.40 23.30Q83.08 23.20 83.76 22.96Q84.44 22.72 85.08 22.26Q85.72 21.80 86.32 21L86.32 21Q86.40 20.32 86.46 19.72Q86.52 19.12 86.52 18.56L86.52 18.56Z M110.60 23.28L110.60 23.28Q111.32 23.76 111.32 24.44L111.32 24.44Q111.32 24.80 111.12 25.18Q110.92 25.56 110.60 25.86Q110.28 26.16 109.92 26.36Q109.56 26.56 109.20 26.56L109.20 26.56Q108.88 26.44 108.44 26.14Q108 25.84 107.56 25.46Q107.12 25.08 106.74 24.60Q106.36 24.12 106.16 23.64L106.16 23.64L105.88 24.32Q105.12 25.76 103.48 27.04L103.48 27.04Q101.48 27.40 101.16 27.40L101.16 27.40Q100.40 27.40 99.32 27.16L99.32 27.16L97.12 25.60Q95.68 24.24 95.68 21.88L95.68 21.88Q95.68 21.04 95.94 20.02Q96.20 19 96.70 17.96Q97.20 16.92 97.92 15.92Q98.64 14.92 99.60 14.12L99.60 14.12Q100.76 13.68 101.84 13.38Q102.92 13.08 103.48 13L103.48 13Q104.24 12.16 105.28 12.16L105.28 12.16Q105.88 12.16 106.34 12.74Q106.80 13.32 107.14 14.20Q107.48 15.08 107.68 16.14Q107.88 17.20 107.96 18.16L107.96 18.16L108.48 20.28Q108.72 21.28 109.26 22Q109.80 22.72 110.60 23.28ZM104.52 18.84L104.52 18.84Q104.44 18.80 103.92 16.32L103.92 16.32Q103.72 16.32 103.32 16.32Q102.92 16.32 102.38 16.54Q101.84 16.76 101.22 17.30Q100.60 17.84 100.04 18.92L100.04 18.92Q99.20 20.48 99.20 22.04L99.20 22.04Q99.88 23.36 101.32 24.12L101.32 24.12Q101.76 24 102.06 23.84Q102.36 23.68 102.60 23.40Q102.84 23.12 103.06 22.70Q103.28 22.28 103.56 21.64L103.56 21.64Q104.08 20.72 104.30 20.02Q104.52 19.32 104.52 18.84Z M124.76 12.92L124.76 12.92Q125.20 13.28 125.20 14.24L125.20 14.24Q125.20 16 123.88 16L123.88 16L123.72 16Q123.12 16.04 122.32 16.10Q121.52 16.16 120.52 16.28L120.52 16.28Q120.44 16.92 120.36 17.98Q120.28 19.04 120.28 20.52L120.28 20.52Q120.28 20.64 120.30 20.76Q120.32 20.88 120.32 21.04L120.32 21.04L120.32 22.88Q120.32 23.52 120.54 23.90Q120.76 24.28 121.08 24.44L121.08 24.44L122.20 24.80Q123.52 25.24 123.52 26.40L123.52 26.40Q123.52 27.08 122.98 27.60Q122.44 28.12 121.60 28.12L121.60 28.12Q121.36 28.12 120.78 27.98Q120.20 27.84 119.58 27.60Q118.96 27.36 118.42 27Q117.88 26.64 117.68 26.20L117.68 26.20Q117.24 25.28 116.96 24.26Q116.68 23.24 116.68 22.12L116.68 22.12Q116.68 20.88 116.72 20.36Q116.76 19.84 116.80 19.44Q116.84 19.04 116.88 18.48Q116.92 17.92 116.92 16.64L116.92 16.64Q116.16 16.72 114.68 17.12L114.68 17.12Q113.80 17.12 113.18 16.66Q112.56 16.20 112.56 15.44L112.56 15.44Q112.56 14.88 112.90 14.40Q113.24 13.92 114.32 13.56L114.32 13.56Q114.68 13.44 114.98 13.40Q115.28 13.36 115.58 13.32Q115.88 13.28 116.24 13.26Q116.60 13.24 117.12 13.16L117.12 13.16Q117.16 12.16 117.26 10.90Q117.36 9.64 117.62 8.56Q117.88 7.48 118.38 6.74Q118.88 6 119.72 6L119.72 6Q121.16 6 121.48 7.32L121.48 7.32Q121.48 7.36 121.38 7.86Q121.28 8.36 121.16 8.96Q121.04 9.56 120.94 10.12Q120.84 10.68 120.84 10.84L120.84 10.84L120.72 12.80Q121 12.76 121.24 12.74Q121.48 12.72 121.76 12.72L121.76 12.72L122.12 12.72Q122.40 12.72 122.64 12.70Q122.88 12.68 123.08 12.68L123.08 12.68Q124.28 12.68 124.76 12.92Z M139 27L139 27Q138.48 27.36 137.32 27.70Q136.16 28.04 134.92 28.28L134.92 28.28L133.28 27.96Q132.92 27.84 132.10 27.40Q131.28 26.96 130.44 26.06Q129.60 25.16 128.96 23.74Q128.32 22.32 128.32 20.28L128.32 20.28Q128.32 19.56 128.66 18.58Q129 17.60 129.68 16.74Q130.36 15.88 131.38 15.28Q132.40 14.68 133.76 14.68L133.76 14.68Q136.48 14.68 138.68 16.44L138.68 16.44Q140.60 19.08 140.60 22.28L140.60 22.28Q140.60 24.64 139 27ZM137.04 21.32L137.04 21.32Q136.84 19.76 136.06 18.86Q135.28 17.96 134.08 17.96L134.08 17.96Q133.28 17.96 132.58 18.74Q131.88 19.52 131.88 21L131.88 21Q131.88 21.60 132.04 22.26Q132.20 22.92 132.56 23.46Q132.92 24 133.48 24.34Q134.04 24.68 134.84 24.68L134.84 24.68Q136.12 24.68 136.60 23.90Q137.08 23.12 137.08 21.96L137.08 21.96Q137.08 21.80 137.06 21.66Q137.04 21.52 137.04 21.32Z M155.08 14.04L156.48 14.40Q157.12 14.80 157.12 15.92L157.12 15.92Q157.12 16.76 156.68 17.36Q156.24 17.96 155.48 17.96L155.48 17.96Q155 17.96 154.50 17.70Q154 17.44 153.44 17.44L153.44 17.44Q152.96 17.44 152.50 17.62Q152.04 17.80 151.44 18.40L151.44 18.40L150.24 19.60Q150.24 19.88 150.26 20.16Q150.28 20.44 150.28 20.76L150.28 20.76Q150.28 21.24 150.26 21.76Q150.24 22.28 150.20 22.88L150.20 22.88L150.56 26.52Q150.44 28.36 148.68 28.36L148.68 28.36Q147.76 28.36 147.32 27.78Q146.88 27.20 146.72 26.16Q146.56 25.12 146.58 23.72Q146.60 22.32 146.56 20.64L146.56 20.64Q146.48 18.12 146.44 18.12L146.44 18.12L146.44 18.16Q146.28 17.56 146.20 17.10Q146.12 16.64 146.12 16.28L146.12 16.28Q146.12 15.56 146.64 15.10Q147.16 14.64 148.16 14.64L148.16 14.64Q148.80 14.64 149.68 15.64L149.68 15.64Q150.60 14.92 151.10 14.56Q151.60 14.20 151.94 14.04Q152.28 13.88 152.60 13.86Q152.92 13.84 153.44 13.84L153.44 13.84Q153.88 13.80 154.26 13.88Q154.64 13.96 155.08 14.04L155.08 14.04Z"/></g>
</svg>
</g><g opacity="1" transform="rotate(0 123.6678 141.6423)">
<svg width="11.0477" height="140" x="123.6678" y="141.6423" version="1.1" preserveAspectRatio="none" viewBox="6.48 -25.44 2.3200000000000003 29.4">
  <g transform="matrix(1 0 0 1 0 0)" class="icon3"><path id="id-lXek8z7fT1" d="M8.68-12.24L8.68-12.24Q8.68-12 8.74-11Q8.80-10 8.80-8.16L8.80-8.16Q8.80-6.80 8.60-6.32L8.60-6.32Q8.68-5.96 8.68-5.58Q8.68-5.20 8.68-4.76L8.68-4.76Q8.68-3.84 8.58-2.86Q8.48-1.88 8.44-0.96L8.44-0.96Q8.48-0.48 8.48-0.02Q8.48 0.44 8.48 0.88L8.48 0.88Q8.48 1.36 8.48 1.90Q8.48 2.44 8.42 2.90Q8.36 3.36 8.18 3.66Q8 3.96 7.64 3.96L7.64 3.96Q7 3.96 6.84 3.72L6.84 3.72Q6.48 2.24 6.48-0.04L6.48-0.04Q6.48-1.40 6.66-3.12Q6.84-4.84 6.84-6.56L6.84-6.56Q6.84-8.08 6.60-9.52L6.60-9.52Q6.60-9.60 6.64-10.30Q6.68-11 6.72-11.88Q6.76-12.76 6.84-13.54Q6.92-14.32 7.04-14.56L7.04-14.56Q6.84-15.36 6.84-17.48L6.84-17.48Q6.84-18.12 6.84-18.82Q6.84-19.52 6.86-20.40Q6.88-21.28 6.98-22.42Q7.08-23.56 7.28-25.16L7.28-25.16Q7.32-25.44 7.84-25.44L7.84-25.44Q8.60-25.44 8.70-25.04Q8.80-24.64 8.80-23.72L8.80-23.72Q8.80-23.12 8.76-22.32Q8.72-21.52 8.64-20.48L8.64-20.48Q8.68-19.20 8.68-17.14Q8.68-15.08 8.68-12.24Z"/></g>
</svg>
</g></svg></svg>